<svg width="42" height="42" viewBox="0 0 42 42" fill="none" xmlns="http://www.w3.org/2000/svg">
<path d="M17.1663 34.4396C24.7391 36.4067 32.4726 31.8624 34.4397 24.2897C36.4068 16.717 31.8625 8.98346 24.2898 7.01638C16.717 5.04931 8.9835 9.59359 7.01642 17.1663C5.04935 24.739 9.59362 32.4726 17.1663 34.4396Z" fill="#F7931A"/>
<path d="M17.9035 14.697L24.3269 16.3655C25.7508 16.7354 26.5728 18.3169 26.2359 19.6142C25.866 21.0381 24.411 21.8931 22.9871 21.5232L16.5638 19.8547L17.9035 14.697Z" stroke="white" stroke-width="2.5" stroke-miterlimit="10" stroke-linecap="round" stroke-linejoin="round"/>
<path d="M16.5679 19.8388L23.9089 21.7457C25.5385 22.169 26.5516 23.665 26.1817 25.0889C25.8119 26.5128 24.1987 27.3266 22.5691 26.9033L15.2281 24.9965L16.5679 19.8388Z" stroke="white" stroke-width="2.5" stroke-miterlimit="10" stroke-linecap="round" stroke-linejoin="round"/>
<path d="M19.7255 26.1478L19.0557 28.7267" stroke="white" stroke-width="2.5" stroke-miterlimit="10" stroke-linecap="round" stroke-linejoin="round"/>
<path d="M16.5137 25.3136L15.8439 27.8924" stroke="white" stroke-width="2.5" stroke-miterlimit="10" stroke-linecap="round" stroke-linejoin="round"/>
<path d="M23.0667 13.2852L22.3968 15.8641" stroke="white" stroke-width="2.5" stroke-miterlimit="10" stroke-linecap="round" stroke-linejoin="round"/>
<path d="M19.8549 12.451L19.185 15.0298" stroke="white" stroke-width="2.5" stroke-miterlimit="10" stroke-linecap="round" stroke-linejoin="round"/>
<path d="M20.34 15.3298L15.8468 14.1627" stroke="white" stroke-width="2.5" stroke-miterlimit="10" stroke-linecap="round" stroke-linejoin="round"/>
<path d="M17.6688 25.6136L13.1756 24.4465" stroke="white" stroke-width="2.5" stroke-miterlimit="10" stroke-linecap="round" stroke-linejoin="round"/>
</svg>
