<svg width="36" height="36" viewBox="0 0 36 36" fill="none" xmlns="http://www.w3.org/2000/svg">
<path d="M14.1663 31.4396C21.7391 33.4067 29.4726 28.8624 31.4397 21.2897C33.4068 13.717 28.8625 5.98346 21.2898 4.01638C13.717 2.04931 5.9835 6.59359 4.01642 14.1663C2.04935 21.739 6.59362 29.4726 14.1663 31.4396Z" fill="#627EEA"/>
<path d="M16.45 9.05L12.71 13.71C11.86 14.77 12.16 16.13 13.37 16.73L17.1 18.6C17.59 18.84 18.39 18.84 18.88 18.6L22.61 16.73C23.82 16.12 24.12 14.76 23.27 13.71L19.54 9.05C18.7 7.98 17.3 7.98 16.45 9.05Z" stroke="white" stroke-width="1.5" stroke-miterlimit="10" stroke-linecap="round" stroke-linejoin="round"/>
<path d="M18 8.29999V13.56" stroke="white" stroke-width="1.5" stroke-miterlimit="10" stroke-linecap="round" stroke-linejoin="round"/>
<path d="M13.8 16.71L18 13.56L22.2 16.71" stroke="white" stroke-width="1.5" stroke-miterlimit="10" stroke-linecap="round" stroke-linejoin="round"/>
<path d="M14.7701 20.43L16.3801 21.15C17.4101 21.61 18.5901 21.61 19.6301 21.15L21.24 20.43C22.68 19.79 24.01 21.53 23.01 22.75L19.5501 26.98C18.7001 28.02 17.31 28.02 16.45 26.98L13.0001 22.75C11.9901 21.53 13.3201 19.79 14.7701 20.43Z" stroke="white" stroke-width="1.5" stroke-miterlimit="10" stroke-linecap="round" stroke-linejoin="round"/>
</svg>
