<svg width="11" height="11" viewBox="0 0 11 11" fill="none" xmlns="http://www.w3.org/2000/svg">
<path d="M3.34373 5.01219C3.34373 4.08951 4.09196 3.34133 5.0152 3.34133C5.93844 3.34133 6.68707 4.08951 6.68707 5.01219C6.68707 5.93488 5.93844 6.68306 5.0152 6.68306C4.09196 6.68306 3.34373 5.93488 3.34373 5.01219ZM2.43996 5.01219C2.43996 6.43365 3.59289 7.58589 5.0152 7.58589C6.43751 7.58589 7.59045 6.43365 7.59045 5.01219C7.59045 3.59074 6.43751 2.43849 5.0152 2.43849C3.59289 2.43849 2.43996 3.59074 2.43996 5.01219ZM7.09057 2.33644C7.09052 2.4554 7.12577 2.5717 7.19186 2.67064C7.25795 2.76958 7.35191 2.8467 7.46186 2.89227C7.57182 2.93784 7.69282 2.9498 7.80957 2.92664C7.92632 2.90348 8.03358 2.84624 8.11778 2.76215C8.20198 2.67807 8.25934 2.57092 8.28261 2.45426C8.30588 2.3376 8.29401 2.21666 8.2485 2.10674C8.20299 1.99682 8.12589 1.90285 8.02695 1.83672C7.92801 1.77059 7.81167 1.73527 7.69264 1.73522H7.6924C7.53285 1.7353 7.37985 1.79865 7.26701 1.91138C7.15417 2.02411 7.09071 2.17699 7.09057 2.33644ZM2.98906 9.092C2.5001 9.06975 2.23433 8.98835 2.05772 8.91958C1.82357 8.82848 1.6565 8.71997 1.48085 8.54467C1.3052 8.36936 1.19647 8.20256 1.10571 7.96855C1.03686 7.79212 0.955416 7.52643 0.933188 7.03776C0.908875 6.50944 0.90402 6.35073 0.90402 5.01223C0.90402 3.67374 0.909276 3.51547 0.933188 2.98671C0.955456 2.49804 1.0375 2.23287 1.10571 2.05592C1.19687 1.82191 1.30544 1.65495 1.48085 1.4794C1.65626 1.30385 1.82317 1.19519 2.05772 1.10449C2.23425 1.03568 2.5001 0.954282 2.98906 0.932068C3.5177 0.907768 3.6765 0.902917 5.0152 0.902917C6.3539 0.902917 6.51286 0.908169 7.04194 0.932068C7.53091 0.954322 7.79623 1.03632 7.97329 1.10449C8.20744 1.19519 8.3745 1.30409 8.55015 1.4794C8.72581 1.65471 8.83414 1.82191 8.92529 2.05592C8.99414 2.23235 9.07559 2.49804 9.09781 2.98671C9.12213 3.51547 9.12698 3.67374 9.12698 5.01223C9.12698 6.35073 9.12213 6.509 9.09781 7.03776C9.07555 7.52643 8.9937 7.79204 8.92529 7.96855C8.83414 8.20256 8.72557 8.36952 8.55015 8.54467C8.37474 8.71981 8.20744 8.82848 7.97329 8.91958C7.79675 8.98839 7.53091 9.06979 7.04194 9.092C6.5133 9.1163 6.3545 9.12115 5.0152 9.12115C3.6759 9.12115 3.51754 9.1163 2.98906 9.092ZM2.94753 0.0303538C2.41364 0.054653 2.04881 0.139259 1.7302 0.26316C1.40024 0.391111 1.12092 0.562769 0.841791 0.841287C0.562665 1.1198 0.391346 1.3994 0.263318 1.72917C0.139342 2.04778 0.0546857 2.41219 0.0303721 2.94577C0.00565715 3.48019 0 3.65104 0 5.01219C0 6.37334 0.00565715 6.5442 0.0303721 7.07862C0.0546857 7.61224 0.139342 7.97661 0.263318 8.29522C0.391346 8.62478 0.562706 8.9047 0.841791 9.1831C1.12088 9.4615 1.40024 9.63292 1.7302 9.76123C2.04941 9.88513 2.41364 9.96973 2.94753 9.99403C3.48256 10.0183 3.65323 10.0244 5.0152 10.0244C6.37717 10.0244 6.54813 10.0187 7.08287 9.99403C7.61681 9.96973 7.98139 9.88513 8.3002 9.76123C8.62996 9.63292 8.90948 9.46162 9.18861 9.1831C9.46774 8.90458 9.63869 8.62478 9.76708 8.29522C9.89106 7.97661 9.97612 7.6122 10 7.07862C10.0243 6.5438 10.03 6.37334 10.03 5.01219C10.03 3.65104 10.0243 3.48019 10 2.94577C9.97571 2.41215 9.89106 2.04758 9.76708 1.72917C9.63869 1.3996 9.46729 1.12025 9.18861 0.841287C8.90992 0.562328 8.62996 0.391111 8.3006 0.26316C7.98139 0.139259 7.61677 0.054252 7.08327 0.0303538C6.54853 0.00605473 6.37757 0 5.0156 0C3.65363 0 3.48256 0.00565376 2.94753 0.0303538Z" fill="white"/>
<path d="M3.34373 5.01219C3.34373 4.08951 4.09196 3.34133 5.0152 3.34133C5.93844 3.34133 6.68707 4.08951 6.68707 5.01219C6.68707 5.93488 5.93844 6.68306 5.0152 6.68306C4.09196 6.68306 3.34373 5.93488 3.34373 5.01219ZM2.43996 5.01219C2.43996 6.43365 3.59289 7.58589 5.0152 7.58589C6.43751 7.58589 7.59045 6.43365 7.59045 5.01219C7.59045 3.59074 6.43751 2.43849 5.0152 2.43849C3.59289 2.43849 2.43996 3.59074 2.43996 5.01219ZM7.09057 2.33644C7.09052 2.4554 7.12577 2.5717 7.19186 2.67064C7.25795 2.76958 7.35191 2.8467 7.46186 2.89227C7.57182 2.93784 7.69282 2.9498 7.80957 2.92664C7.92632 2.90348 8.03358 2.84624 8.11778 2.76215C8.20198 2.67807 8.25934 2.57092 8.28261 2.45426C8.30588 2.3376 8.29401 2.21666 8.2485 2.10674C8.20299 1.99682 8.12589 1.90285 8.02695 1.83672C7.92801 1.77059 7.81167 1.73527 7.69264 1.73522H7.6924C7.53285 1.7353 7.37985 1.79865 7.26701 1.91138C7.15417 2.02411 7.09071 2.17699 7.09057 2.33644ZM2.98906 9.092C2.5001 9.06975 2.23433 8.98835 2.05772 8.91958C1.82357 8.82848 1.6565 8.71997 1.48085 8.54467C1.3052 8.36936 1.19647 8.20256 1.10571 7.96855C1.03686 7.79212 0.955416 7.52643 0.933188 7.03776C0.908875 6.50944 0.90402 6.35073 0.90402 5.01223C0.90402 3.67374 0.909276 3.51547 0.933188 2.98671C0.955456 2.49804 1.0375 2.23287 1.10571 2.05592C1.19687 1.82191 1.30544 1.65495 1.48085 1.4794C1.65626 1.30385 1.82317 1.19519 2.05772 1.10449C2.23425 1.03568 2.5001 0.954282 2.98906 0.932068C3.5177 0.907768 3.6765 0.902917 5.0152 0.902917C6.3539 0.902917 6.51286 0.908169 7.04194 0.932068C7.53091 0.954322 7.79623 1.03632 7.97329 1.10449C8.20744 1.19519 8.3745 1.30409 8.55015 1.4794C8.72581 1.65471 8.83414 1.82191 8.92529 2.05592C8.99414 2.23235 9.07559 2.49804 9.09781 2.98671C9.12213 3.51547 9.12698 3.67374 9.12698 5.01223C9.12698 6.35073 9.12213 6.509 9.09781 7.03776C9.07555 7.52643 8.9937 7.79204 8.92529 7.96855C8.83414 8.20256 8.72557 8.36952 8.55015 8.54467C8.37474 8.71981 8.20744 8.82848 7.97329 8.91958C7.79675 8.98839 7.53091 9.06979 7.04194 9.092C6.5133 9.1163 6.3545 9.12115 5.0152 9.12115C3.6759 9.12115 3.51754 9.1163 2.98906 9.092ZM2.94753 0.0303538C2.41364 0.054653 2.04881 0.139259 1.7302 0.26316C1.40024 0.391111 1.12092 0.562769 0.841791 0.841287C0.562665 1.1198 0.391346 1.3994 0.263318 1.72917C0.139342 2.04778 0.0546857 2.41219 0.0303721 2.94577C0.00565715 3.48019 0 3.65104 0 5.01219C0 6.37334 0.00565715 6.5442 0.0303721 7.07862C0.0546857 7.61224 0.139342 7.97661 0.263318 8.29522C0.391346 8.62478 0.562706 8.9047 0.841791 9.1831C1.12088 9.4615 1.40024 9.63292 1.7302 9.76123C2.04941 9.88513 2.41364 9.96973 2.94753 9.99403C3.48256 10.0183 3.65323 10.0244 5.0152 10.0244C6.37717 10.0244 6.54813 10.0187 7.08287 9.99403C7.61681 9.96973 7.98139 9.88513 8.3002 9.76123C8.62996 9.63292 8.90948 9.46162 9.18861 9.1831C9.46774 8.90458 9.63869 8.62478 9.76708 8.29522C9.89106 7.97661 9.97612 7.6122 10 7.07862C10.0243 6.5438 10.03 6.37334 10.03 5.01219C10.03 3.65104 10.0243 3.48019 10 2.94577C9.97571 2.41215 9.89106 2.04758 9.76708 1.72917C9.63869 1.3996 9.46729 1.12025 9.18861 0.841287C8.90992 0.562328 8.62996 0.391111 8.3006 0.26316C7.98139 0.139259 7.61677 0.054252 7.08327 0.0303538C6.54853 0.00605473 6.37757 0 5.0156 0C3.65363 0 3.48256 0.00565376 2.94753 0.0303538Z" fill="white"/>
</svg>
