<svg width="11" height="9" viewBox="0 0 11 9" fill="none" xmlns="http://www.w3.org/2000/svg">
<path d="M10.3018 1.02469C9.96707 1.16874 9.61517 1.26905 9.25479 1.32314C9.42328 1.29426 9.67119 0.990992 9.76987 0.86824C9.91979 0.68308 10.034 0.471706 10.1068 0.244854C10.1068 0.228006 10.1237 0.203937 10.1068 0.191902C10.0983 0.187268 10.0888 0.184839 10.0792 0.184839C10.0695 0.184839 10.06 0.187268 10.0515 0.191902C9.66016 0.403811 9.2437 0.565545 8.81193 0.673281C8.79688 0.677878 8.78086 0.678291 8.7656 0.674475C8.75033 0.670658 8.73639 0.662757 8.72528 0.651619C8.69167 0.6116 8.65549 0.573812 8.61697 0.538495C8.44086 0.380711 8.24106 0.251571 8.02487 0.155799C7.73305 0.0360743 7.41783 -0.0157757 7.10303 0.00416441C6.79758 0.0234552 6.49936 0.105383 6.22692 0.244854C5.95864 0.391897 5.72286 0.591659 5.53374 0.832136C5.3348 1.07965 5.19118 1.36689 5.11253 1.67455C5.04767 1.96719 5.04032 2.26965 5.09087 2.5651C5.09087 2.61565 5.09087 2.62287 5.04754 2.61565C3.33143 2.36292 1.92339 1.75398 0.772896 0.447033C0.722351 0.389268 0.695875 0.389268 0.654958 0.447033C0.154324 1.20761 0.39742 2.41106 1.02321 3.00556C1.10745 3.08499 1.1941 3.16201 1.28556 3.23422C0.998643 3.21385 0.718728 3.13609 0.462406 3.00556C0.414269 2.97427 0.387793 2.99112 0.385386 3.04889C0.378563 3.12897 0.378563 3.20949 0.385386 3.28958C0.435607 3.67338 0.586862 4.03696 0.823682 4.34313C1.0605 4.64931 1.37439 4.88709 1.73325 5.03217C1.82073 5.06964 1.91188 5.09787 2.00523 5.11641C1.73961 5.1687 1.46718 5.17684 1.19892 5.14048C1.14115 5.12844 1.11949 5.15973 1.14115 5.21509C1.49496 6.17785 2.26276 6.47149 2.82598 6.63516C2.903 6.6472 2.98002 6.6472 3.06667 6.66645C3.06667 6.66645 3.06667 6.66645 3.05223 6.68089C2.88615 6.98416 2.21463 7.18875 1.90654 7.29465C1.34421 7.49664 0.744666 7.57384 0.14951 7.5209C0.0556411 7.50646 0.0339791 7.50886 0.00991013 7.5209C-0.0141588 7.53293 0.00991013 7.55941 0.036386 7.58348C0.156731 7.66291 0.277075 7.73271 0.402234 7.8001C0.774832 8.00333 1.16874 8.16477 1.5768 8.28148C3.69005 8.86395 6.06807 8.43552 7.65421 6.859C8.90098 5.62186 9.33904 3.91537 9.33904 2.20647C9.33904 2.14149 9.41846 2.10298 9.4642 2.06928C9.77962 1.82351 10.0577 1.53326 10.2898 1.20761C10.3299 1.15907 10.3506 1.09726 10.3475 1.03432C10.3475 0.998212 10.3475 1.00543 10.3018 1.02469Z" fill="white"/>
</svg>
